<svg width="111" height="20" viewBox="0 0 111 20" fill="none" xmlns="http://www.w3.org/2000/svg">
<path d="M79.7786 7.47986L79.5136 7.25275C79.6398 6.73543 79.8638 6.26858 80.1856 5.8522C80.5073 5.43582 80.8984 5.10465 81.3591 4.85869C81.8195 4.61256 82.3273 4.4895 82.8825 4.4895C83.5386 4.4895 84.119 4.64722 84.6237 4.96266C85.1284 5.2781 85.5291 5.79542 85.8257 6.51462C86.0659 7.14639 86.2053 7.81195 86.239 8.487C86.2605 8.78799 86.2709 9.08967 86.2703 9.39142C86.2703 10.0097 86.2451 10.6343 86.1946 11.2651C86.1442 11.896 86.0811 12.4827 86.0054 13.0253C85.9297 13.5678 85.8476 14.0221 85.7593 14.388C85.6331 14.8927 85.4408 15.2775 85.1822 15.5425C84.9234 15.8075 84.5985 15.9399 84.2074 15.9399C83.8793 15.9399 83.6206 15.7948 83.4314 15.5046C83.2421 15.2144 83.1475 14.798 83.1475 14.2555C83.1475 14.0031 83.179 13.6783 83.2421 13.2809C83.3052 12.8834 83.3746 12.4481 83.4503 11.975C83.526 11.5018 83.5954 11.0191 83.6585 10.527C83.7216 10.0349 83.7531 9.56807 83.7531 9.12646C83.7531 8.47034 83.6206 7.96253 83.3557 7.60301C83.0907 7.24333 82.7185 7.06348 82.239 7.06348C81.7091 7.06348 81.2707 7.33796 80.9238 7.88691C80.6307 8.39533 80.4464 8.95902 80.3825 9.54233C80.3475 9.7874 80.3228 10.0338 80.3085 10.281C80.2581 11.2147 80.2139 12.0443 80.176 12.7699C80.1575 13.3601 80.0669 13.9459 79.9063 14.5142C79.9017 14.5289 79.8969 14.5436 79.8921 14.5583C79.7912 14.8864 79.6493 15.1324 79.4664 15.2964C79.2834 15.4605 79.0405 15.5425 78.7376 15.5425C78.397 15.5425 78.1289 15.4163 77.9334 15.164C77.7142 14.8238 77.5999 14.4267 77.6048 14.0221C77.6038 14.0053 77.6029 13.9884 77.6021 13.9716C77.5768 13.5174 77.5705 12.9811 77.5831 12.3629C77.5958 11.7446 77.6053 11.1295 77.6116 10.5177C77.6179 9.90563 77.6084 9.39773 77.5831 8.99397C77.5667 8.49433 77.4749 8.00004 77.3108 7.52781C77.2691 7.41914 77.2178 7.31442 77.1574 7.21489C76.9239 6.83637 76.5737 6.6471 76.1069 6.6471C75.5643 6.6471 75.1322 6.89946 74.8106 7.40416C74.4987 7.94128 74.3077 8.53999 74.2511 9.1585C74.2363 9.27372 74.224 9.38924 74.2142 9.50498C74.189 9.87089 74.1796 10.322 74.186 10.8583C74.1922 11.3945 74.2016 11.9276 74.2142 12.4575C74.2269 12.9874 74.2206 13.429 74.1953 13.7823C74.2042 14.2378 74.1352 14.6915 73.9914 15.1238C73.9535 15.2243 73.9045 15.3203 73.8453 15.41C73.6244 15.7381 73.3184 15.9021 72.9273 15.9021C72.4604 15.9021 72.1229 15.7507 71.9148 15.4479C71.7061 15.0947 71.579 14.6992 71.5429 14.2906C71.5289 14.1908 71.5172 14.0908 71.5078 13.9905C71.4573 13.3975 71.4195 12.8077 71.3942 12.221C71.369 11.6342 71.3564 11.0506 71.3564 10.4702C71.3564 9.8772 71.3722 9.23371 71.4038 8.53974C71.4353 7.84577 71.4825 7.18966 71.5456 6.5714C71.6213 5.94052 71.7538 5.41058 71.9431 4.98159C72.1323 4.55259 72.4478 4.33809 72.8894 4.33809C73.2553 4.33809 73.514 4.51793 73.6654 4.87762C73.8063 5.27121 73.88 5.68574 73.8832 6.10379C73.8896 6.24695 73.8927 6.39024 73.8925 6.53355C73.8925 6.7859 73.8736 7.01932 73.8357 7.23382L73.7789 6.85529C74.0313 6.03515 74.435 5.39485 74.9902 4.9344C75.5454 4.47377 76.1637 4.24346 76.845 4.24346C77.7409 4.24346 78.4411 4.53055 78.9458 5.10473C79.451 5.72499 79.7393 6.49361 79.7665 7.29312C79.7715 7.35531 79.7755 7.41756 79.7786 7.47986ZM8.12345 12.6846H8.19916C8.11084 12.079 8.02882 11.4165 7.95312 10.6973C7.87741 9.97814 7.80801 9.25263 7.74493 8.52081C7.68184 7.78899 7.63457 7.10453 7.60311 6.46743C7.57148 5.83016 7.55566 5.28441 7.55566 4.83018C7.54748 4.30348 7.58395 3.77704 7.66468 3.25651C7.69967 3.03317 7.76161 2.81489 7.84915 2.60646C8.04464 2.17107 8.35057 1.95337 8.76695 1.95337C9.05715 1.95337 9.29058 2.02908 9.46722 2.18049C9.64387 2.3319 9.79528 2.55271 9.92146 2.84291C10.1493 3.43428 10.311 4.04905 10.4037 4.67599C10.4624 5.03495 10.5098 5.39565 10.546 5.75757C10.6722 6.99409 10.7353 8.40725 10.7353 9.99707C10.7353 11.221 10.6848 12.2619 10.5839 13.1199C10.5328 13.6799 10.3986 14.2292 10.1857 14.7496C10.1366 14.86 10.08 14.9668 10.0161 15.0693C9.7385 15.5109 9.33474 15.7318 8.8048 15.7318C8.45151 15.7318 8.09191 15.5898 7.726 15.306C7.36009 15.0221 6.99107 14.5994 6.61894 14.038C6.24478 13.4605 5.9087 12.8592 5.61281 12.2379C5.56265 12.1348 5.51319 12.0314 5.46443 11.9276C5.07515 11.091 4.71267 10.2423 4.37755 9.38259C4.32297 9.24382 4.26888 9.10486 4.21529 8.96571C3.7799 7.83635 3.32247 6.5714 2.843 5.17085H2.7673C2.85562 5.82696 2.93133 6.60294 2.99441 7.49879C3.0575 8.39464 3.10797 9.30941 3.14582 10.2431C3.18368 11.1768 3.2026 12.0348 3.2026 12.8171C3.21083 13.3839 3.17175 13.9503 3.08577 14.5106C3.04407 14.788 2.96566 15.0586 2.85259 15.3154C2.61908 15.8075 2.25629 16.0535 1.7642 16.0535C1.22165 16.0535 0.833699 15.798 0.600358 15.2871C0.423338 14.8508 0.318997 14.3884 0.29148 13.9184C0.262522 13.5836 0.248713 13.2477 0.250094 12.9117C0.250094 12.243 0.265908 11.4796 0.297536 10.6216C0.328996 9.76364 0.37627 8.88041 0.439358 7.97195C0.502445 7.06348 0.58446 6.19918 0.6854 5.37904C0.745809 4.82717 0.849165 4.28086 0.99453 3.74506C1.05105 3.5425 1.12492 3.34519 1.21534 3.15532C1.44245 2.69469 1.82729 2.46438 2.36984 2.46438C2.60407 2.48502 2.83156 2.55357 3.0382 2.66578C3.24483 2.778 3.42619 2.93148 3.57104 3.11671C3.57129 3.11696 3.57154 3.11721 3.57179 3.11747C3.93939 3.52656 4.26128 3.97453 4.53174 4.45342C4.64842 4.65214 4.76058 4.85348 4.86812 5.05729C5.24963 5.78708 5.60558 6.52995 5.93532 7.28454C6.07776 7.60705 6.21732 7.93083 6.35397 8.25584C6.89013 9.53022 7.47996 11.0065 8.12345 12.6846ZM31.9896 6.51462V6.43891C31.4092 6.60294 30.772 6.75124 30.078 6.88381C29.384 7.01621 28.7153 7.12346 28.0718 7.20556C27.4283 7.28749 26.8921 7.32845 26.4631 7.32845C26.0332 7.34863 25.6038 7.27786 25.2031 7.12077C25.1444 7.09364 25.0879 7.06183 25.0343 7.02563C24.7377 6.82375 24.5894 6.52093 24.5894 6.11717C24.5894 5.82696 24.6935 5.5683 24.9018 5.34119C25.1099 5.11407 25.3906 4.93742 25.7439 4.81125C26.1098 4.65984 26.5514 4.52735 27.0687 4.4138C27.586 4.30024 28.1349 4.21191 28.7153 4.14883C29.2957 4.08574 29.8572 4.0542 30.3998 4.0542C31.2325 4.0542 31.9265 4.10786 32.4817 4.2152C33.0368 4.32236 33.4564 4.51793 33.7404 4.80191C34.0242 5.08572 34.1661 5.49891 34.1661 6.04146C34.1661 6.39475 34.021 6.81433 33.7308 7.30019C33.4144 7.80308 33.044 8.26992 32.6263 8.69241C32.5444 8.77818 32.4615 8.86298 32.3777 8.94678C31.8426 9.47387 31.2817 9.97422 30.6973 10.446C30.4678 10.6334 30.2361 10.8182 30.0023 11.0002C29.1912 11.6277 28.3621 12.2316 27.5159 12.811C27.1793 13.0428 26.841 13.2719 26.5009 13.4984V13.5741C26.9552 13.4227 27.4851 13.2903 28.0907 13.1767C28.6964 13.0631 29.3305 12.9717 29.993 12.9024C30.6553 12.8329 31.2893 12.7982 31.8949 12.7982C32.3462 12.7832 32.797 12.8382 33.2314 12.9614C33.3328 12.9943 33.4305 13.038 33.5226 13.0917C33.8507 13.2871 34.0147 13.6057 34.0147 14.0473C33.9964 14.3272 33.9014 14.5967 33.74 14.8262C33.5787 15.0557 33.3574 15.2364 33.1002 15.3484C33.0156 15.3975 32.9293 15.4433 32.8413 15.4857C32.2612 15.7444 31.643 15.9069 31.0107 15.9669C30.4812 16.0276 29.9485 16.0565 29.4156 16.0535C27.7753 16.0535 26.5577 15.8642 25.7628 15.4857C25.4894 15.385 25.2431 15.2224 25.043 15.0106C24.843 14.7988 24.6947 14.5435 24.6098 14.2648C24.5833 14.1501 24.57 14.0326 24.5704 13.9148C24.6024 13.346 24.7947 12.7977 25.1251 12.3336C25.2353 12.1614 25.3534 11.9943 25.4789 11.8329C26.0846 11.0506 26.9425 10.2053 28.0529 9.29679C28.9641 8.55803 29.9116 7.86522 30.8918 7.22095C31.2546 6.98061 31.6205 6.74515 31.9896 6.51462ZM103.361 7.04456L103.323 6.66603C103.626 5.84589 104.093 5.20559 104.724 4.74513C105.354 4.28451 106.023 4.0542 106.73 4.0542C107.512 4.0542 108.165 4.275 108.689 4.71662C109.212 5.15823 109.603 5.77649 109.862 6.5714C110.12 7.42014 110.251 8.30264 110.248 9.1898C110.25 9.257 110.25 9.32421 110.25 9.39142C110.25 10.0602 110.222 10.7195 110.165 11.3694C110.108 12.0191 110.032 12.6121 109.938 13.1484C109.843 13.6846 109.739 14.123 109.625 14.4637C109.474 14.8927 109.278 15.2113 109.039 15.4196C108.799 15.6277 108.515 15.7318 108.187 15.7318C107.859 15.7318 107.607 15.6119 107.43 15.3721C107.253 15.1324 107.165 14.8107 107.165 14.4069C107.165 13.9779 107.197 13.4575 107.26 12.8456C107.323 12.2336 107.383 11.609 107.44 10.9719C107.496 10.3346 107.525 9.75733 107.525 9.24001C107.543 8.69136 107.46 8.14404 107.28 7.62547C107.18 7.31199 106.978 7.04048 106.708 6.85325C106.437 6.66601 106.112 6.57357 105.783 6.59033C105.165 6.59033 104.648 6.8648 104.231 7.41375C103.847 7.96232 103.591 8.59027 103.483 9.25112C103.45 9.41686 103.422 9.58357 103.399 9.75103C103.361 10.0917 103.342 10.5144 103.342 11.0191C103.342 11.5238 103.345 12.0254 103.351 12.5239C103.352 12.5934 103.353 12.663 103.353 12.7326C103.356 13.0831 103.339 13.4335 103.304 13.7823C103.254 14.5394 103.112 15.0819 102.878 15.41C102.645 15.7381 102.326 15.9021 101.922 15.9021C101.456 15.9021 101.102 15.6845 100.863 15.2493C100.677 14.8594 100.57 14.4372 100.546 14.0062C100.516 13.6864 100.501 13.3654 100.503 13.0442C100.503 12.5143 100.516 11.9212 100.541 11.2651C100.566 10.609 100.601 9.94979 100.645 9.28746C100.689 8.62495 100.743 8.02242 100.806 7.47986C100.879 6.82289 101.006 6.17306 101.186 5.53701C101.235 5.37156 101.291 5.20838 101.355 5.04795C101.594 4.44854 101.954 4.14883 102.433 4.14883C102.837 4.14883 103.112 4.31286 103.257 4.64091C103.403 5.03194 103.476 5.44677 103.471 5.86431C103.473 5.94227 103.474 6.02025 103.474 6.09824C103.474 6.24965 103.465 6.41057 103.446 6.58099C103.427 6.75124 103.399 6.90576 103.361 7.04456ZM43.0993 14.0095L43.2886 14.1041C42.582 15.4794 41.2446 16.1671 39.2762 16.1671C38.514 16.1934 37.7569 16.0329 37.0709 15.6994C37.0616 15.6945 37.0522 15.6896 37.0429 15.6846C36.4499 15.3627 36.0115 14.9337 35.7276 14.3976C35.4437 13.8612 35.3017 13.2776 35.3017 12.6468C35.3017 11.5616 35.6802 10.7005 36.4373 10.0634C37.219 9.44295 38.1889 9.10747 39.1869 9.11232C39.2734 9.10913 39.36 9.10753 39.4466 9.10753C40.2667 9.10753 40.9796 9.2274 41.5852 9.46713C42.1909 9.70686 42.7082 10.0412 43.1372 10.4702L42.8154 10.4324C42.7271 9.158 42.4527 8.24642 41.9923 7.69764C41.5316 7.14869 40.8786 6.87422 40.0333 6.87422C39.5412 6.87422 39.087 6.94993 38.6706 7.10134C38.2542 7.25275 37.8726 7.40735 37.5257 7.56516C37.1786 7.72279 36.8536 7.80161 36.5508 7.80161C36.248 7.80161 36.0115 7.70067 35.8412 7.49879C35.6708 7.29691 35.5856 7.03825 35.5856 6.72281C35.5856 6.26858 35.8033 5.83958 36.2387 5.43582C36.6739 5.03206 37.2511 4.704 37.9703 4.45165C38.6895 4.1993 39.4718 4.07312 40.3172 4.07312C41.3392 4.07312 42.2161 4.31916 42.9479 4.81125C43.6797 5.30333 44.2349 6.02253 44.6134 6.96885C44.9415 7.77638 45.1749 8.67853 45.3137 9.67532C45.4525 10.6721 45.5219 11.7383 45.5219 12.8739C45.5273 13.4083 45.5025 13.9426 45.4475 14.4743C45.4326 14.6039 45.4133 14.7329 45.3894 14.8611C45.3495 15.2172 45.2091 15.5545 44.9847 15.8337C44.984 15.8345 44.9833 15.8352 44.9826 15.836C44.7996 16.0188 44.5567 16.1103 44.2538 16.1103C43.8248 16.1103 43.5315 15.9431 43.3739 15.6089C43.2267 15.2431 43.1428 14.855 43.1256 14.4612C43.1131 14.3108 43.1044 14.1602 43.0993 14.0095ZM40.0711 13.9905C40.4875 13.9905 40.9102 13.9306 41.3392 13.8109C41.7682 13.6909 42.1278 13.5111 42.418 13.2713C42.7082 13.0316 42.8533 12.7351 42.8533 12.3818C42.8533 12.079 42.7303 11.8298 42.4844 11.6343C42.2382 11.4387 41.9165 11.2904 41.5191 11.1894C41.1216 11.0885 40.6957 11.038 40.2415 11.038C39.4718 11.038 38.8883 11.1705 38.4909 11.4355C38.0934 11.7004 37.8946 12.0537 37.8946 12.4953C37.8946 12.9748 38.0807 13.3439 38.453 13.6027C38.8962 13.8704 39.4072 14.0045 39.9248 13.9888C39.9735 13.99 40.0223 13.9906 40.0711 13.9905ZM14.7287 10.8677L15.183 10.0349C15.1451 10.3377 15.1262 10.6406 15.1262 10.9434C15.0985 11.2812 15.149 11.6209 15.2739 11.9361C15.3987 12.2513 15.5946 12.5334 15.8462 12.7606C15.8827 12.7903 15.9203 12.8187 15.959 12.8456C16.5043 13.1885 17.1308 13.3807 17.7746 13.4025C17.9577 13.4163 18.1412 13.4231 18.3248 13.4227C19.1197 13.4227 19.7568 13.3533 20.2363 13.2145C20.7158 13.0758 21.1195 12.9402 21.4476 12.8078C21.7757 12.6752 22.0974 12.6089 22.4128 12.6089C22.5895 12.6089 22.7504 12.6563 22.8956 12.751C23.0406 12.8455 23.1605 12.9811 23.2552 13.1578C23.3497 13.3344 23.397 13.5489 23.397 13.8013C23.397 14.1798 23.2077 14.5426 22.8292 14.8897C22.3846 15.2624 21.8658 15.5365 21.3073 15.6936C21.2565 15.7101 21.2055 15.726 21.1544 15.7413C20.4162 15.9621 19.5108 16.0724 18.4383 16.0724C17.6332 16.0857 16.8298 15.9953 16.0478 15.8034C15.7167 15.7178 15.3952 15.5987 15.0883 15.4479C14.2556 15.0315 13.6563 14.4321 13.2903 13.6499C12.9073 12.7757 12.72 11.8284 12.7417 10.8742C12.7416 10.8657 12.7416 10.8572 12.7415 10.8488C12.7415 9.47344 12.997 8.3032 13.5081 7.33804C14.0191 6.37271 14.7256 5.63139 15.6279 5.11407C16.5299 4.59675 17.5551 4.33809 18.7033 4.33809C19.4077 4.31751 20.1092 4.43531 20.7683 4.68482C21.1059 4.82082 21.4138 5.02131 21.6747 5.27507C22.3056 5.89956 22.621 6.7165 22.621 7.72591C22.621 8.53343 22.4097 9.23059 21.9871 9.81739C21.5644 10.404 20.9807 10.8551 20.2363 11.1705C19.4919 11.4859 18.6339 11.6437 17.6623 11.6437C17.1198 11.6437 16.5961 11.5743 16.0914 11.4355C15.5867 11.2967 15.1325 11.1074 14.7287 10.8677ZM17.3406 9.88351C18.0586 9.91445 18.7707 9.74148 19.3945 9.38461C19.4296 9.36248 19.4642 9.33951 19.4982 9.31572C20.0407 8.93719 20.312 8.47034 20.312 7.91517C20.312 7.47355 20.1638 7.11084 19.8674 6.82703C19.4931 6.52175 19.0169 6.36972 18.535 6.40157C18.5154 6.40126 18.4958 6.40109 18.4762 6.40106C17.8831 6.40106 17.3501 6.51151 16.877 6.7324C16.4038 6.95312 16.0347 7.24013 15.7697 7.59342C15.5047 7.94671 15.3722 8.33155 15.3722 8.74793C15.3722 9.11384 15.5458 9.39462 15.8928 9.59028C16.2397 9.78577 16.7223 9.88351 17.3406 9.88351ZM90.1692 10.8677L90.6234 10.0349C90.5855 10.3377 90.5666 10.6406 90.5666 10.9434C90.5389 11.2812 90.5894 11.6209 90.7143 11.9361C90.8391 12.2513 91.035 12.5334 91.2866 12.7606C91.3231 12.7903 91.3607 12.8187 91.3994 12.8456C91.9447 13.1885 92.5712 13.3807 93.215 13.4025C93.3981 13.4163 93.5816 13.4231 93.7652 13.4227C94.5601 13.4227 95.1973 13.3533 95.6767 13.2145C96.1562 13.0758 96.56 12.9402 96.888 12.8078C97.2161 12.6752 97.5378 12.6089 97.8532 12.6089C98.0299 12.6089 98.1908 12.6563 98.336 12.751C98.481 12.8455 98.6009 12.9811 98.6956 13.1578C98.7901 13.3344 98.8374 13.5489 98.8374 13.8013C98.8374 14.1798 98.6482 14.5426 98.2696 14.8897C97.825 15.2624 97.3062 15.5365 96.7477 15.6936C96.6969 15.7101 96.6459 15.726 96.5948 15.7413C95.8566 15.9621 94.9512 16.0724 93.8787 16.0724C93.0736 16.0857 92.2702 15.9953 91.4882 15.8034C91.1571 15.7178 90.8357 15.5987 90.5288 15.4479C89.696 15.0315 89.0967 14.4321 88.7308 13.6499C88.3477 12.7757 88.1604 11.8284 88.1821 10.8742C88.182 10.8657 88.182 10.8572 88.1819 10.8488C88.1819 9.47344 88.4374 8.3032 88.9485 7.33804C89.4595 6.37271 90.166 5.63139 91.0683 5.11407C91.9704 4.59675 92.9955 4.33809 94.1437 4.33809C94.8481 4.31751 95.5496 4.43531 96.2087 4.68482C96.5463 4.82082 96.8542 5.02131 97.1151 5.27507C97.746 5.89956 98.0614 6.7165 98.0614 7.72591C98.0614 8.53343 97.8501 9.23059 97.4275 9.81739C97.0048 10.404 96.4212 10.8551 95.6767 11.1705C94.9323 11.4859 94.0743 11.6437 93.1027 11.6437C92.5602 11.6437 92.0366 11.5743 91.5319 11.4355C91.0271 11.2967 90.5729 11.1074 90.1692 10.8677ZM92.781 9.88351C93.499 9.91445 94.2111 9.74148 94.8349 9.38461C94.87 9.36248 94.9046 9.33951 94.9386 9.31572C95.4811 8.93719 95.7524 8.47034 95.7524 7.91517C95.7524 7.47355 95.6042 7.11084 95.3078 6.82703C94.9335 6.52175 94.4573 6.36972 93.9754 6.40157C93.9558 6.40126 93.9362 6.40109 93.9166 6.40106C93.3235 6.40106 92.7905 6.51151 92.3174 6.7324C91.8442 6.95312 91.4751 7.24013 91.2101 7.59342C90.9451 7.94671 90.8126 8.33155 90.8126 8.74793C90.8126 9.11384 90.9862 9.39462 91.3332 9.59028C91.6801 9.78577 92.1627 9.88351 92.781 9.88351ZM50.4428 6.66603L50.0453 7.02563C50.2724 6.1424 50.6951 5.46736 51.3134 5.00051C51.9316 4.53366 52.6634 4.30024 53.5088 4.30024C54.2911 4.30024 54.9851 4.50212 55.5907 4.90588C56.1964 5.30964 56.6727 5.91848 57.0198 6.7324C57.3235 7.49415 57.4934 8.30261 57.522 9.12217C57.5343 9.34419 57.5404 9.56651 57.5401 9.78888C57.5401 11.7698 57.1837 13.2304 56.4709 14.1705C55.7579 15.1104 54.7895 15.5803 53.5656 15.5803C52.6824 15.5803 51.9884 15.3911 51.4837 15.0125C50.979 14.634 50.6257 14.1735 50.4238 13.6309L50.6509 13.5174C50.7519 14.2744 50.8371 15.0221 50.9066 15.7603C50.9759 16.4983 51.0105 17.1449 51.0105 17.7001C51.0105 18.2679 50.9096 18.7473 50.7077 19.1385C50.5058 19.5296 50.1841 19.7252 49.7425 19.7252C49.3135 19.7252 48.9917 19.5612 48.7772 19.2331C48.5627 18.9051 48.405 18.4698 48.3041 17.9272C48.2284 17.372 48.1527 16.6591 48.077 15.7885C48.0013 14.9179 47.9414 13.9779 47.8973 12.9685C47.853 11.9591 47.8309 10.9749 47.8309 10.016C47.8309 9.03182 47.8657 8.10763 47.9351 7.24341C48.0045 6.37902 48.0896 5.67555 48.1905 5.133C48.2788 4.81756 48.3956 4.58102 48.5408 4.42339C48.6858 4.26558 48.8782 4.18668 49.1179 4.18668C49.4586 4.18668 49.7425 4.38545 49.9696 4.78299C50.1729 5.18432 50.306 5.61746 50.3633 6.06367C50.3959 6.26359 50.4224 6.46447 50.4428 6.66603ZM52.7328 6.47677C52.0515 6.47677 51.5058 6.81433 51.0958 7.48945C50.6857 8.16441 50.4806 9.02551 50.4806 10.0728C50.4613 10.6948 50.5599 11.3149 50.7713 11.9003C50.8524 12.1064 50.9616 12.3002 51.0958 12.4764C51.5058 13.0064 52.0389 13.2713 52.695 13.2713C53.452 13.2713 53.9978 12.9717 54.3322 12.3725C54.66 11.7308 54.8304 11.0204 54.8294 10.2999C54.8323 10.2116 54.8337 10.1233 54.8337 10.0349C54.8483 9.40179 54.7702 8.76993 54.6018 8.15945C54.517 7.86588 54.3843 7.58834 54.2091 7.33804C53.7927 6.76386 53.3006 6.47677 52.7328 6.47677ZM64.0508 15.9778C63.0414 15.9778 62.1614 15.7539 61.4107 15.306C60.6599 14.858 60.0795 14.2176 59.6695 13.3849C59.2402 12.4592 59.0297 11.4471 59.0542 10.4271C59.0542 10.4225 59.0542 10.418 59.0542 10.4134C59.0542 9.21478 59.2624 8.16752 59.6788 7.27167C60.0952 6.37583 60.6851 5.67555 61.4486 5.17085C62.2118 4.66615 63.0982 4.4138 64.1076 4.4138C65.1927 4.4138 66.1327 4.65673 66.9276 5.14259C67.7225 5.62828 68.3408 6.30643 68.7824 7.17704C69.224 8.04765 69.4448 9.06337 69.4448 10.2242C69.4716 11.2692 69.2517 12.3057 68.8031 13.2499C68.7962 13.2634 68.7893 13.2768 68.7824 13.2903C68.3408 14.1482 67.7162 14.8107 66.9087 15.2775C66.1012 15.7444 65.1485 15.9778 64.0508 15.9778ZM64.3158 13.4227C65.0981 13.4227 65.7195 13.1105 66.1801 12.486C66.6365 11.8163 66.8764 11.0227 66.8675 10.2123C66.8698 10.1406 66.8709 10.0688 66.8708 9.99707C66.8708 8.94981 66.6406 8.11705 66.1801 7.49879C65.7195 6.88053 65.0981 6.5714 64.3158 6.5714C63.5082 6.5714 62.8711 6.88053 62.4042 7.49879C61.9524 8.14692 61.7101 8.91803 61.7102 9.70812C61.706 9.80438 61.7039 9.90072 61.7039 9.99707C61.6737 10.7804 61.8592 11.5571 62.2402 12.2422C62.2908 12.3261 62.3456 12.4075 62.4042 12.486C62.8711 13.1105 63.5082 13.4227 64.3158 13.4227ZM105.405 2.48331L105.121 2.42653C105.436 1.78303 105.806 1.27522 106.228 0.903085C106.651 0.530783 107.064 0.344632 107.468 0.344632C107.758 0.344632 108.001 0.423534 108.197 0.581337C108.392 0.738973 108.49 0.956584 108.49 1.23417C108.49 1.54961 108.383 1.82089 108.168 2.048C107.954 2.27512 107.651 2.50854 107.26 2.74828C106.932 2.95016 106.594 3.11107 106.247 3.23103C105.9 3.35081 105.626 3.4107 105.424 3.4107C105.159 3.4107 104.862 3.32869 104.534 3.16466C104.206 3.00063 103.859 2.79875 103.493 2.55901C103.102 2.28143 102.793 2.01015 102.566 1.74518C102.339 1.48021 102.225 1.20263 102.225 0.912422C102.225 0.710541 102.295 0.549709 102.433 0.429926C102.572 0.309975 102.743 0.25 102.944 0.25C103.374 0.28906 103.778 0.473089 104.089 0.771862C104.092 0.774549 104.096 0.777241 104.099 0.779938C104.517 1.15022 104.874 1.58423 105.157 2.06592C105.243 2.20317 105.326 2.34233 105.405 2.48331Z" fill="#D72483" stroke="#D72483" stroke-width="0.5" stroke-linecap="round"/>
</svg>
